<?xml version="1.0" encoding="utf-8"?>
<!-- Generator: Adobe Illustrator 14.0.0, SVG Export Plug-In . SVG Version: 6.00 Build 43363)  -->
<!DOCTYPE svg PUBLIC "-//W3C//DTD SVG 1.1//EN" "http://www.w3.org/Graphics/SVG/1.1/DTD/svg11.dtd">
<svg version="1.1" id="Layer_1" xmlns="http://www.w3.org/2000/svg" xmlns:xlink="http://www.w3.org/1999/xlink" x="0px" y="0px"
	 width="300px" height="90px" viewBox="0 0 300 90" enable-background="new 0 0 300 90" xml:space="preserve">
<g>
	<g>
		<g>
			<polygon fill="#CF5928" points="66.986,23.002 34.672,23.002 32.73,25.062 68.917,25.062 			"/>
			<polygon fill="#CF5928" points="62.378,18.104 39.268,18.104 37.331,20.167 64.307,20.167 			"/>
			<polygon fill="#CF5928" points="57.767,13.207 43.872,13.207 41.941,15.271 59.706,15.271 			"/>
			<polygon fill="#CF5928" points="50.817,5.83 46.616,10.294 55.037,10.294 			"/>
		</g>
		<polygon points="50.864,27.487 50.774,27.487 50.817,27.558 		"/>
		<polygon fill="#CF5928" points="94.62,70.919 7.026,70.919 5.096,72.961 96.564,72.961 		"/>
		<polygon fill="#CF5928" points="90.022,66.021 11.637,66.021 9.695,68.062 91.953,68.062 		"/>
		<polygon fill="#CF5928" points="85.412,61.126 16.246,61.126 14.296,63.166 87.341,63.166 		"/>
		<polygon fill="#CF5928" points="80.799,56.229 20.841,56.229 18.907,58.267 82.732,58.267 		"/>
		<polygon fill="#CF5928" points="94.62,52.384 77.194,52.384 76.191,51.331 25.448,51.331 24.453,52.384 7.026,52.384 
			5.096,54.435 96.564,54.435 		"/>
		<polygon fill="#CF5928" points="90.022,47.484 72.59,47.484 71.595,46.436 30.061,46.436 29.067,47.484 11.637,47.484 
			9.695,49.538 91.953,49.538 		"/>
		<polygon fill="#CF5928" points="85.412,42.592 67.984,42.592 66.986,41.539 34.672,41.539 33.669,42.592 16.246,42.592 
			14.296,44.646 87.341,44.646 		"/>
		<polygon fill="#CF5928" points="80.799,37.693 63.374,37.693 62.378,36.64 39.268,36.64 38.268,37.693 20.841,37.693 
			18.907,39.75 82.732,39.75 		"/>
		<polygon fill="#CF5928" points="76.191,32.794 58.767,32.794 57.767,31.741 43.872,31.741 42.876,32.794 25.448,32.794 
			23.519,34.855 78.133,34.855 		"/>
		<polygon fill="#CF5928" points="71.595,27.899 54.164,27.899 52.956,26.61 48.699,26.61 47.491,27.899 30.061,27.899 
			28.13,29.958 73.529,29.958 		"/>
	</g>
	<rect x="5.096" y="76.713" fill="#CF5928" width="290" height="7.234"/>
	<g>
		<g>
			<path fill="#CF5928" d="M133.316,36.896l0.115,0.103v0.622l-0.102,0.088c-0.931,0.025-1.508,0.072-1.733,0.14
				c-0.223,0.068-0.381,0.18-0.476,0.335c-0.092,0.157-0.146,0.464-0.159,0.921c-0.012,0.457-0.036,1.748-0.07,3.872v5.85
				c0,0.848,0.013,1.803,0.039,2.871c0.025,1.065,0.078,1.686,0.159,1.859c0.08,0.174,0.226,0.301,0.437,0.381
				c0.213,0.08,0.813,0.134,1.803,0.159l0.102,0.088v0.622l-0.115,0.102c-1.379-0.076-2.581-0.113-3.605-0.113
				c-0.694,0-1.874,0.037-3.542,0.113l-0.114-0.102v-0.609l0.102-0.101c0.93-0.025,1.509-0.071,1.733-0.14
				c0.223-0.067,0.382-0.181,0.476-0.336c0.092-0.156,0.147-0.468,0.165-0.934c0.016-0.465,0.037-1.752,0.064-3.861v-9.315
				l-4.38,9.164c-1.101,2.294-2.062,4.452-2.881,6.476h-0.496c-0.474-1.091-0.863-1.964-1.168-2.615l-6.067-12.606v8.873
				c0,0.829,0.01,1.783,0.032,2.865c0.021,1.079,0.074,1.701,0.158,1.871c0.084,0.168,0.233,0.296,0.444,0.381
				c0.211,0.086,0.813,0.135,1.802,0.152l0.103,0.102v0.608l-0.115,0.114l-0.813-0.037c-0.838-0.043-1.558-0.063-2.158-0.063
				c-0.271,0-1.283,0.033-3.033,0.101l-0.103-0.101v-0.61l0.103-0.113c0.93-0.018,1.505-0.061,1.725-0.127
				c0.22-0.067,0.379-0.183,0.477-0.343c0.097-0.16,0.152-0.462,0.164-0.901c0.013-0.439,0.033-1.738,0.058-3.898v-5.813
				c0-0.77-0.011-1.707-0.031-2.811c-0.021-1.106-0.073-1.744-0.153-1.917c-0.081-0.174-0.227-0.303-0.438-0.388
				c-0.211-0.085-0.812-0.135-1.801-0.152l-0.103-0.101v-0.609l0.115-0.116c0.583,0.043,1.372,0.064,2.361,0.064
				c0.931,0,1.744-0.021,2.438-0.064c0.71,1.643,1.391,3.128,2.043,4.457l4.811,9.875l4.342-9.051
				c1.176-2.446,1.967-4.205,2.373-5.281c0.813,0.043,1.612,0.064,2.4,0.064C131.514,36.96,132.352,36.939,133.316,36.896z"/>
		</g>
		<g>
			<path fill="#CF5928" d="M134.955,36.948l0.101-0.089c2.902,0.05,4.76,0.076,5.573,0.076c2.774,0,5.246-0.026,7.412-0.076
				l0.063,0.089c-0.211,0.812-0.368,2.085-0.47,3.821l-0.076,0.102h-0.622l-0.114-0.102c0.007-0.077,0.012-0.144,0.012-0.203
				c0-0.719-0.055-1.404-0.165-2.057c-0.533-0.237-1.271-0.391-2.215-0.463c-0.943-0.071-1.653-0.107-2.126-0.107
				c-0.669,0-1.524,0.046-2.564,0.14l-0.051,2.031l-0.038,2.323l-0.039,2.576c0.915,0.052,1.756,0.077,2.527,0.077
				c0.778,0,1.43-0.025,1.954-0.077c0.524-0.051,0.833-0.103,0.921-0.158c0.089-0.055,0.156-0.162,0.202-0.318
				c0.047-0.157,0.088-0.434,0.121-0.831l0.05-0.787l0.103-0.101h0.583l0.102,0.101c-0.017,0.922-0.039,1.848-0.063,2.78
				l0.063,2.855l-0.102,0.103h-0.583l-0.103-0.103l-0.088-0.761c-0.076-0.593-0.132-0.945-0.165-1.06
				c-0.034-0.115-0.113-0.215-0.235-0.3c-0.123-0.083-0.438-0.152-0.946-0.203c-0.508-0.05-1.206-0.075-2.094-0.075
				c-0.491,0-1.24,0.021-2.247,0.063c-0.042,0.712-0.063,1.896-0.063,3.554c0,1.778,0.021,3.087,0.063,3.925h2.336
				c2.057,0,3.343-0.025,3.858-0.076c0.517-0.052,1.007-0.173,1.473-0.368c0.076-0.195,0.202-0.646,0.375-1.352
				c0.173-0.707,0.273-1.149,0.299-1.328l0.126-0.09h0.609l0.102,0.09c-0.077,0.365-0.15,1-0.223,1.905
				c-0.071,0.905-0.107,1.68-0.107,2.323l-0.089,0.101c-1.617-0.051-3.732-0.076-6.347-0.076l-3.452-0.024
				c-0.804,0-1.642,0.033-2.514,0.101l-0.101-0.101v-0.419l0.101-0.127c0.5-0.254,0.786-0.412,0.856-0.477
				c0.073-0.063,0.132-0.805,0.179-2.221c0.046-1.419,0.069-2.5,0.069-3.245v-4.659l-0.013-2.88c0-0.626-0.008-1.136-0.025-1.529
				c-0.017-0.396-0.046-0.676-0.088-0.845c-0.043-0.17-0.092-0.288-0.146-0.355c-0.055-0.067-0.143-0.125-0.266-0.171
				c-0.124-0.046-0.333-0.087-0.629-0.121l-0.964-0.076l-0.101-0.089V36.948z"/>
		</g>
		<g>
			<path fill="#CF5928" d="M165.228,36.859l0.114,0.114c-0.078,0.761-0.114,2.09-0.114,3.986l-0.104,0.101h-0.596l-0.1-0.114
				l-0.14-1.169c-0.068-0.625-0.122-1.009-0.16-1.147c-0.038-0.14-0.1-0.242-0.184-0.306c-0.084-0.063-0.359-0.116-0.825-0.158
				c-0.466-0.043-0.985-0.064-1.561-0.064h-2.399c-0.068,1.912-0.101,3.016-0.101,3.313v7.399l0.024,2.478
				c0.008,0.955,0.031,1.575,0.07,1.858c0.037,0.284,0.097,0.471,0.177,0.559c0.081,0.089,0.234,0.165,0.464,0.229
				c0.229,0.063,0.795,0.112,1.7,0.146l0.089,0.076v0.635l-0.089,0.101c-2.166-0.067-3.375-0.101-3.631-0.101
				c-0.271,0-1.476,0.033-3.616,0.101l-0.103-0.101v-0.635l0.103-0.076c0.796-0.034,1.321-0.077,1.58-0.127
				c0.258-0.051,0.432-0.116,0.521-0.196c0.089-0.081,0.163-0.253,0.223-0.515c0.059-0.264,0.088-0.846,0.088-1.753l0.025-2.679
				v-7.399c0-0.136-0.033-1.24-0.101-3.313h-1.893c-0.778,0-1.45,0.018-2.019,0.051c-0.565,0.034-0.895,0.12-0.984,0.26
				c-0.088,0.14-0.17,0.594-0.246,1.364l-0.128,1.169l-0.113,0.114h-0.585l-0.101-0.101c-0.017-2.039-0.055-3.368-0.114-3.986
				l0.114-0.114c1.473,0.067,3.922,0.101,7.349,0.101C161.36,36.96,163.813,36.926,165.228,36.859z"/>
		</g>
		<path fill="#CF5928" d="M164.732,54.896l-0.114-0.101v-0.661l0.114-0.102c0.617-0.007,1.015-0.04,1.192-0.095
			c0.178-0.056,0.336-0.165,0.476-0.33s0.422-0.704,0.846-1.618l1.333-2.895l3.452-7.82c0.651-1.533,1.299-3.063,1.942-4.595h0.825
			l5.419,12.745l0.724,1.702c0.212,0.481,0.455,1.006,0.729,1.573c0.275,0.566,0.465,0.901,0.571,1.002
			c0.105,0.103,0.237,0.18,0.394,0.235c0.155,0.055,0.506,0.088,1.047,0.095l0.102,0.102v0.661l-0.102,0.101
			c-0.897-0.076-1.706-0.114-2.426-0.114c-1.402,0.043-2.808,0.08-4.212,0.114l-0.102-0.101v-0.661l0.102-0.102
			c0.947-0.016,1.54-0.057,1.778-0.119c0.235-0.063,0.354-0.211,0.354-0.438c0-0.187-0.06-0.433-0.178-0.737l-1.561-3.871h-7.352
			l-1.383,3.249c-0.245,0.585-0.367,1.012-0.367,1.282c0,0.212,0.114,0.368,0.342,0.47c0.229,0.102,0.805,0.158,1.729,0.165
			l0.113,0.102v0.661l-0.102,0.101c-1.091-0.067-2.048-0.101-2.869-0.101C166.618,54.796,165.68,54.829,164.732,54.896z
			 M170.521,47.776h6.423l-3.186-7.655L170.521,47.776z"/>
		<g>
			<path fill="#CF5928" d="M184.863,36.948l0.103-0.089c2.098,0.067,3.309,0.101,3.63,0.101c0.288,0,1.501-0.034,3.641-0.101
				l0.104,0.089v0.635l-0.104,0.089c-0.581,0.017-1.032,0.042-1.351,0.076c-0.317,0.034-0.547,0.097-0.691,0.191
				c-0.144,0.093-0.239,0.311-0.285,0.653s-0.07,0.819-0.07,1.429l-0.023,2.918v5.61c0,1.405,0.008,2.388,0.023,2.945l0.064,2.197
				h2.589c2.064,0,3.354-0.025,3.865-0.076c0.511-0.052,1.005-0.173,1.479-0.368c0.094-0.211,0.228-0.699,0.399-1.46
				c0.174-0.762,0.264-1.202,0.273-1.321l0.114-0.101h0.621l0.09,0.101c-0.067,0.339-0.138,0.995-0.21,1.969
				c-0.071,0.973-0.107,1.76-0.107,2.361l-0.102,0.101c-1.609-0.051-3.719-0.076-6.335-0.076l-3.706-0.024
				c-0.846,0-1.709,0.033-2.588,0.101l-0.104-0.101v-0.419l0.104-0.127c0.523-0.271,0.812-0.437,0.863-0.495
				c0.05-0.06,0.102-0.605,0.158-1.639c0.054-1.031,0.082-2.276,0.082-3.732v-5.445l-0.024-2.475
				c-0.01-0.964-0.034-1.587-0.07-1.867c-0.037-0.278-0.098-0.464-0.178-0.558c-0.082-0.092-0.235-0.168-0.465-0.228
				c-0.227-0.059-0.79-0.107-1.687-0.14l-0.103-0.089V36.948z"/>
		</g>
		<g>
			<path fill="#CF5928" d="M201.276,50.428l0.1-0.103H202l0.102,0.103c0.042,1.085,0.098,1.746,0.17,1.987s0.3,0.496,0.688,0.762
				c0.384,0.267,0.896,0.485,1.534,0.654c0.64,0.169,1.285,0.254,1.937,0.254c0.897,0,1.702-0.165,2.418-0.496
				c0.715-0.33,1.271-0.814,1.668-1.452c0.397-0.64,0.598-1.356,0.598-2.152c0-0.559-0.096-1.046-0.286-1.461
				c-0.191-0.415-0.457-0.747-0.801-0.996c-0.342-0.249-0.733-0.437-1.173-0.559c-0.439-0.123-1.095-0.256-1.969-0.399
				c-0.845-0.136-1.506-0.26-1.985-0.368c-0.478-0.111-0.955-0.279-1.427-0.507c-0.474-0.229-0.869-0.519-1.188-0.871
				c-0.317-0.351-0.571-0.781-0.761-1.294c-0.192-0.512-0.288-1.06-0.288-1.644c0-1.582,0.552-2.879,1.652-3.891
				c1.1-1.01,2.576-1.516,4.43-1.516c0.735,0,1.537,0.091,2.404,0.271c0.869,0.183,1.656,0.452,2.368,0.807l0.09,0.152
				c-0.188,0.778-0.302,1.888-0.344,3.326l-0.114,0.101h-0.661l-0.1-0.088c-0.019-1.016-0.044-1.656-0.076-1.917
				c-0.034-0.263-0.42-0.588-1.157-0.977c-0.735-0.39-1.534-0.584-2.397-0.584c-0.72,0-1.393,0.144-2.019,0.433
				c-0.625,0.287-1.101,0.74-1.423,1.358c-0.321,0.617-0.481,1.249-0.481,1.89c0,0.5,0.096,0.942,0.292,1.328
				c0.193,0.385,0.447,0.689,0.755,0.913c0.309,0.225,0.668,0.392,1.079,0.501c0.412,0.11,1.161,0.245,2.254,0.406
				c1.497,0.212,2.586,0.468,3.268,0.769c0.681,0.301,1.227,0.777,1.638,1.427c0.41,0.651,0.616,1.438,0.616,2.361
				c0,1.804-0.735,3.307-2.204,4.508c-1.467,1.202-3.247,1.802-5.335,1.802c-1.753,0-3.289-0.313-4.608-0.938l-0.077-0.165
				C201.171,53.627,201.232,52.384,201.276,50.428z"/>
		</g>
		<g>
			<path fill="#CF5928" d="M229.238,36.859l0.116,0.114c-0.078,0.761-0.116,2.09-0.116,3.986l-0.102,0.101h-0.596l-0.102-0.114
				l-0.14-1.169c-0.066-0.625-0.12-1.009-0.158-1.147c-0.038-0.14-0.1-0.242-0.184-0.306c-0.084-0.063-0.36-0.116-0.825-0.158
				c-0.466-0.043-0.985-0.064-1.563-0.064h-2.398c-0.067,1.912-0.102,3.016-0.102,3.313v7.399l0.026,2.478
				c0.008,0.955,0.031,1.575,0.067,1.858c0.04,0.284,0.098,0.471,0.18,0.559c0.08,0.089,0.234,0.165,0.464,0.229
				c0.228,0.063,0.795,0.112,1.7,0.146l0.088,0.076v0.635l-0.088,0.101c-2.168-0.067-3.377-0.101-3.631-0.101
				c-0.271,0-1.477,0.033-3.618,0.101l-0.1-0.101v-0.635l0.1-0.076c0.797-0.034,1.322-0.077,1.582-0.127
				c0.256-0.051,0.432-0.116,0.52-0.196c0.091-0.081,0.162-0.253,0.223-0.515c0.06-0.264,0.09-0.846,0.09-1.753l0.023-2.679v-7.399
				c0-0.136-0.034-1.24-0.102-3.313h-1.891c-0.779,0-1.45,0.018-2.018,0.051c-0.567,0.034-0.896,0.12-0.985,0.26
				c-0.086,0.14-0.17,0.594-0.246,1.364l-0.128,1.169l-0.115,0.114h-0.584l-0.1-0.101c-0.019-2.039-0.056-3.368-0.116-3.986
				l0.116-0.114c1.473,0.067,3.922,0.101,7.349,0.101C225.372,36.96,227.826,36.926,229.238,36.859z"/>
		</g>
		<path fill="#CF5928" d="M230.457,46.049c0-1.269,0.185-2.455,0.548-3.555c0.361-1.099,0.981-2.117,1.858-3.052
			c0.875-0.934,1.93-1.658,3.167-2.17c1.235-0.512,2.632-0.768,4.19-0.768c2.883,0,5.181,0.785,6.892,2.355
			c1.71,1.57,2.563,3.711,2.563,6.428c0,1.914-0.42,3.631-1.257,5.154c-0.837,1.524-2.038,2.709-3.599,3.556
			c-1.561,0.846-3.315,1.269-5.262,1.269c-1.38,0-2.649-0.23-3.808-0.691c-1.159-0.461-2.148-1.149-2.964-2.062
			c-0.817-0.915-1.41-1.975-1.776-3.175C230.642,48.136,230.457,47.039,230.457,46.049z M233.099,45.21
			c0,1.033,0.166,2.144,0.502,3.333c0.334,1.188,0.831,2.21,1.496,3.061c0.664,0.85,1.431,1.482,2.299,1.897
			c0.867,0.414,1.855,0.621,2.965,0.621c1.311,0,2.478-0.3,3.501-0.899c1.024-0.602,1.804-1.534,2.336-2.801
			c0.533-1.266,0.801-2.686,0.801-4.259c0-1.71-0.304-3.254-0.915-4.633c-0.607-1.379-1.477-2.382-2.602-3.008
			c-1.127-0.626-2.374-0.939-3.744-0.939c-2.057,0-3.677,0.642-4.862,1.929C233.69,40.798,233.099,42.698,233.099,45.21z"/>
		<path fill="#CF5928" d="M251.122,54.885l-0.113-0.114v-0.585l0.113-0.101c0.518-0.009,0.93-0.039,1.237-0.089
			c0.31-0.051,0.51-0.136,0.598-0.254c0.088-0.119,0.147-0.31,0.178-0.571c0.029-0.263,0.058-0.854,0.088-1.777
			c0.029-0.924,0.046-1.584,0.046-1.981V39.156c0-0.432-0.08-0.751-0.236-0.958c-0.157-0.207-0.369-0.339-0.641-0.394
			c-0.271-0.055-0.731-0.086-1.383-0.095l-0.103-0.102v-0.596l0.103-0.116c1.167,0.043,1.934,0.064,2.296,0.064
			c0.854,0,1.559-0.021,2.107-0.064l4.051,5.256l5.952,7.463c0.72,0.905,1.451,1.766,2.196,2.577v-9.824
			c0-0.305-0.017-0.955-0.046-1.948c-0.028-0.994-0.066-1.625-0.106-1.893c-0.044-0.266-0.115-0.445-0.224-0.54
			c-0.105-0.093-0.304-0.163-0.596-0.208c-0.291-0.046-0.689-0.075-1.187-0.082l-0.102-0.103v-0.583l0.102-0.116
			c0.686,0.043,1.662,0.064,2.932,0.064c1.16,0,2.002-0.021,2.527-0.064l0.114,0.116v0.583l-0.103,0.103
			c-0.56,0.007-0.991,0.04-1.295,0.095c-0.304,0.055-0.495,0.146-0.571,0.272c-0.076,0.128-0.13,0.313-0.16,0.56
			c-0.029,0.245-0.058,0.829-0.086,1.751c-0.029,0.923-0.046,1.587-0.046,1.993v6.029l0.013,3.491
			c0.018,1.143,0.033,2.289,0.05,3.44c-0.422-0.144-1.153-0.323-2.194-0.533l-0.903-1.067l-2.701-3.301l-8.606-10.751v9.736
			c0,0.39,0.015,1.083,0.044,2.082c0.03,0.999,0.066,1.604,0.108,1.816c0.042,0.211,0.096,0.356,0.166,0.438
			c0.065,0.08,0.212,0.154,0.438,0.222c0.224,0.068,0.688,0.106,1.389,0.115l0.102,0.101v0.597l-0.102,0.103
			c-0.439-0.06-1.151-0.089-2.132-0.089C253.175,54.796,252.069,54.825,251.122,54.885z"/>
		<path fill="#CF5928" d="M272.814,36.948l0.104-0.089c2.901,0.05,4.758,0.076,5.571,0.076c2.775,0,5.247-0.026,7.413-0.076
			l0.063,0.089c-0.212,0.812-0.369,2.085-0.47,3.821l-0.075,0.102h-0.624l-0.111-0.102c0.006-0.077,0.012-0.144,0.012-0.203
			c0-0.719-0.056-1.404-0.166-2.057c-0.533-0.237-1.271-0.391-2.214-0.463c-0.945-0.071-1.652-0.107-2.126-0.107
			c-0.669,0-1.524,0.046-2.565,0.14l-0.05,2.031l-0.038,2.323l-0.04,2.576c0.915,0.052,1.756,0.077,2.527,0.077
			c0.777,0,1.429-0.025,1.954-0.077c0.523-0.051,0.832-0.103,0.922-0.158c0.088-0.055,0.155-0.162,0.201-0.318
			c0.046-0.157,0.088-0.434,0.12-0.831l0.052-0.787l0.103-0.101h0.583l0.102,0.101c-0.018,0.922-0.038,1.848-0.063,2.78l0.063,2.855
			l-0.102,0.103h-0.583l-0.103-0.103l-0.09-0.761c-0.076-0.593-0.13-0.945-0.164-1.06c-0.033-0.115-0.111-0.215-0.235-0.3
			c-0.122-0.083-0.436-0.152-0.945-0.203c-0.508-0.05-1.205-0.075-2.094-0.075c-0.492,0-1.239,0.021-2.248,0.063
			c-0.042,0.712-0.063,1.896-0.063,3.554c0,1.778,0.021,3.087,0.063,3.925h2.338c2.056,0,3.343-0.025,3.856-0.076
			c0.518-0.052,1.009-0.173,1.475-0.368c0.074-0.195,0.2-0.646,0.374-1.352c0.174-0.707,0.273-1.149,0.297-1.328l0.128-0.09h0.609
			l0.101,0.09c-0.076,0.365-0.15,1-0.222,1.905c-0.07,0.905-0.108,1.68-0.108,2.323l-0.088,0.101
			c-1.616-0.051-3.732-0.076-6.346-0.076l-3.453-0.024c-0.806,0-1.643,0.033-2.516,0.101l-0.1-0.101v-0.419l0.1-0.127
			c0.499-0.254,0.787-0.412,0.857-0.477c0.071-0.063,0.132-0.805,0.18-2.221c0.046-1.419,0.067-2.5,0.067-3.245v-4.659l-0.012-2.88
			c0-0.626-0.008-1.136-0.026-1.529c-0.018-0.396-0.046-0.676-0.088-0.845c-0.041-0.17-0.092-0.288-0.146-0.355
			c-0.056-0.067-0.144-0.125-0.266-0.171c-0.124-0.046-0.334-0.087-0.63-0.121l-0.963-0.076l-0.104-0.089V36.948z"/>
	</g>
</g>
</svg>
